<svg width="26" height="25" viewBox="0 0 26 25" fill="none" xmlns="http://www.w3.org/2000/svg">
<g id="github-mark 1" clip-path="url(#clip0_32_4119)">
<path id="Vector" fill-rule="evenodd" clip-rule="evenodd" d="M12.9613 0C5.79402 0 0 5.72917 0 12.8169C0 18.4826 3.71243 23.2784 8.86255 24.9758C9.50645 25.1034 9.74231 24.7 9.74231 24.3607C9.74231 24.0635 9.72108 23.0451 9.72108 21.9839C6.11557 22.7479 5.36476 20.456 5.36476 20.456C4.78533 18.9706 3.9268 18.5888 3.9268 18.5888C2.74671 17.8036 4.01276 17.8036 4.01276 17.8036C5.32178 17.8885 6.00865 19.1193 6.00865 19.1193C7.16725 21.0714 9.0342 20.5198 9.78529 20.1802C9.89247 19.3526 10.236 18.7797 10.6008 18.4615C7.72518 18.1643 4.69963 17.0609 4.69963 12.1378C4.69963 10.7372 5.21433 9.59141 6.02988 8.70026C5.9012 8.38203 5.45045 7.06615 6.15882 5.30495C6.15882 5.30495 7.2532 4.96536 9.72082 6.62057C10.7773 6.34002 11.8668 6.1973 12.9613 6.19609C14.0557 6.19609 15.1713 6.34479 16.2015 6.62057C18.6693 4.96536 19.7637 5.30495 19.7637 5.30495C20.4721 7.06615 20.0211 8.38203 19.8924 8.70026C20.7294 9.59141 21.2229 10.7372 21.2229 12.1378C21.2229 17.0609 18.1973 18.143 15.3002 18.4615C15.7724 18.8646 16.18 19.6284 16.18 20.838C16.18 22.5568 16.1587 23.9362 16.1587 24.3604C16.1587 24.7 16.3949 25.1034 17.0385 24.976C22.1886 23.2781 25.901 18.4826 25.901 12.8169C25.9223 5.72917 20.107 0 12.9613 0Z" fill="#FFFDEC"/>
</g>
<defs>
<clipPath id="clip0_32_4119">
<rect width="26" height="25" fill="white"/>
</clipPath>
</defs>
</svg>
