<svg width="359" height="140" viewBox="0 0 359 140" fill="none" xmlns="http://www.w3.org/2000/svg">
<g clip-path="url(#clip0_4207_5778)">
<path d="M20.6405 67.2401H15.4805V72.4101H20.6405V67.2401Z" fill="#E7F1BE"/>
<path d="M25.8006 67.2401H20.6406V72.4101H25.8006V67.2401Z" fill="#E7F1BE"/>
<path d="M30.9491 67.2401H25.7891V72.4101H30.9491V67.2401Z" fill="#E7F1BE"/>
<path d="M36.1092 67.2401H30.9492V72.4101H36.1092V67.2401Z" fill="#E7F1BE"/>
<path d="M41.2694 67.2401H36.1094V72.4101H41.2694V67.2401Z" fill="#E7F1BE"/>
<path d="M46.4295 67.2401H41.2695V72.4101H46.4295V67.2401Z" fill="#E7F1BE"/>
<path d="M51.5897 67.2401H46.4297V72.4101H51.5897V67.2401Z" fill="#E7F1BE"/>
<path d="M56.7498 67.2401H51.5898V72.4101H56.7498V67.2401Z" fill="#E7F1BE"/>
<path d="M61.91 31.05H56.75V36.2201H61.91V31.05Z" fill="#E7F1BE"/>
<path d="M61.91 67.2401H56.75V72.4101H61.91V67.2401Z" fill="#E7F1BE"/>
<path d="M61.91 103.43H56.75V108.6H61.91V103.43Z" fill="#E7F1BE"/>
<path d="M67.0702 36.22H61.9102V41.39H67.0702V36.22Z" fill="#E7F1BE"/>
<path d="M67.0702 67.2401H61.9102V72.4101H67.0702V67.2401Z" fill="#E7F1BE"/>
<path d="M67.0702 98.26H61.9102V103.43H67.0702V98.26Z" fill="#E7F1BE"/>
<path d="M72.2206 41.39H67.0605V46.56H72.2206V41.39Z" fill="#E7F1BE"/>
<path d="M72.2206 67.2401H67.0605V72.4101H72.2206V67.2401Z" fill="#E7F1BE"/>
<path d="M72.2206 93.09H67.0605V98.26H72.2206V93.09Z" fill="#E7F1BE"/>
<path d="M77.3807 46.5601H72.2207V51.7301H77.3807V46.5601Z" fill="#E7F1BE"/>
<path d="M77.3807 67.2401H72.2207V72.4101H77.3807V67.2401Z" fill="#E7F1BE"/>
<path d="M77.3807 87.92H72.2207V93.09H77.3807V87.92Z" fill="#E7F1BE"/>
<path d="M82.5409 51.73H77.3809V56.9H82.5409V51.73Z" fill="#E7F1BE"/>
<path d="M82.5409 67.2401H77.3809V72.4101H82.5409V67.2401Z" fill="#E7F1BE"/>
<path d="M82.5409 82.75H77.3809V87.92H82.5409V82.75Z" fill="#E7F1BE"/>
<path d="M87.6991 46.5601H82.5391V51.7301H87.6991V46.5601Z" fill="#E7F1BE"/>
<path d="M87.6991 67.2401H82.5391V72.4101H87.6991V67.2401Z" fill="#E7F1BE"/>
<path d="M87.6991 87.92H82.5391V93.09H87.6991V87.92Z" fill="#E7F1BE"/>
<path d="M92.8592 41.39H87.6992V46.56H92.8592V41.39Z" fill="#E7F1BE"/>
<path d="M92.8592 67.2401H87.6992V72.4101H92.8592V67.2401Z" fill="#E7F1BE"/>
<path d="M92.8592 93.09H87.6992V98.26H92.8592V93.09Z" fill="#E7F1BE"/>
<path d="M98.0194 36.22H92.8594V41.39H98.0194V36.22Z" fill="#E7F1BE"/>
<path d="M98.0194 67.2401H92.8594V72.4101H98.0194V67.2401Z" fill="#E7F1BE"/>
<path d="M98.0194 98.26H92.8594V103.43H98.0194V98.26Z" fill="#E7F1BE"/>
<path d="M103.18 31.05H98.0195V36.2201H103.18V31.05Z" fill="#E7F1BE"/>
<path d="M103.18 67.2401H98.0195V72.4101H103.18V67.2401Z" fill="#E7F1BE"/>
<path d="M103.18 103.43H98.0195V108.6H103.18V103.43Z" fill="#E7F1BE"/>
<path d="M113.5 62.07H108.34V67.24H113.5V62.07Z" fill="#E7F1BE"/>
<path d="M113.5 72.41H108.34V77.58H113.5V72.41Z" fill="#E7F1BE"/>
<path d="M118.65 62.07H113.49V67.24H118.65V62.07Z" fill="#E7F1BE"/>
<path d="M118.65 72.41H113.49V77.58H118.65V72.41Z" fill="#E7F1BE"/>
<path d="M134.13 103.43V10.37H128.97V5.20003H123.81V0.0300293H10.32V5.20003H5.16V10.37H0V124.11H5.16V129.28H10.32V134.45H87.7H92.86H123.81V129.28H128.97V124.11H134.13V103.43ZM15.48 67.24H103.18V72.41H15.48V67.24ZM118.65 67.24H108.33V62.07H118.65V67.24ZM118.65 77.58H108.33V72.41H118.65V77.58ZM103.18 108.6H98.02V103.43H92.86V98.26H87.7V93.09H82.54V87.92H77.38V93.09H72.22V98.26H67.06V103.43H61.9V108.6H56.74V103.43H61.9V98.26H67.06V93.09H72.22V87.92H77.38V82.75H82.54V87.92H87.7V93.09H92.86V98.26H98.02V103.43H103.18V108.6ZM72.22 51.73V46.56H67.06V41.39H61.9V36.22H56.74V31.05H61.9V36.22H67.06V41.39H72.22V46.56H77.38V51.73H82.54V46.56H87.7V41.39H92.86V36.22H98.02V31.05H103.18V36.22H98.02V41.39H92.86V46.56H87.7V51.73H82.54V56.9H77.38V51.73H72.22Z" fill="#222623"/>
<path d="M353.57 10.31H348.41V15.48H353.57V10.31Z" fill="#222623"/>
<path d="M353.57 119.15H348.41V124.32H353.57V119.15Z" fill="#222623"/>
<path d="M348.41 124.32H343.25V129.49H348.41V124.32Z" fill="#222623"/>
<path d="M348.41 5.14001H343.25V10.31H348.41V5.14001Z" fill="#222623"/>
<path d="M111.099 5.16H343.249V0H105.939V134.65H343.249V129.49H111.099V5.16Z" fill="#222623"/>
<path d="M358.73 15.48H353.57V119.15H358.73V15.48Z" fill="#222623"/>
<path d="M134.32 2.58002H124V132.07H134.32V2.58002Z" fill="#222623"/>
<path d="M165.96 93V63.192H157.752V59.232H165.96V51.312C165.96 50.352 166.008 49.392 166.104 48.432C166.248 47.472 166.464 46.536 166.752 45.624C167.088 44.712 167.544 43.848 168.12 43.032C168.696 42.216 169.392 41.544 170.208 41.016C171.024 40.44 171.888 40.056 172.8 39.864C173.76 39.624 174.744 39.504 175.752 39.504C177.048 39.504 178.32 39.72 179.568 40.152C180.864 40.536 181.968 41.208 182.88 42.168C183.792 43.128 184.44 44.256 184.824 45.552C185.256 46.8 185.472 48.072 185.472 49.368V49.944H181.08V49.584C181.08 48.816 180.984 48.072 180.792 47.352C180.6 46.584 180.264 45.888 179.784 45.264C179.304 44.64 178.704 44.184 177.984 43.896C177.264 43.608 176.52 43.464 175.752 43.464C175.128 43.464 174.528 43.56 173.952 43.752C173.376 43.944 172.872 44.256 172.44 44.688C172.008 45.072 171.648 45.552 171.36 46.128C171.072 46.656 170.856 47.208 170.712 47.784C170.568 48.36 170.448 48.96 170.352 49.584C170.304 50.16 170.28 50.736 170.28 51.312V59.232H182.88V63.192H170.28V93H165.96Z" fill="#222623"/>
<path d="M205.344 93.576C204.192 93.576 203.016 93.408 201.816 93.072C200.664 92.736 199.608 92.208 198.648 91.488C197.736 90.768 196.944 89.904 196.272 88.896C195.648 87.84 195.144 86.76 194.76 85.656C194.376 84.504 194.112 83.352 193.968 82.2C193.824 81 193.752 79.8 193.752 78.6V55.56H198.144V78.6C198.144 79.512 198.192 80.4 198.288 81.264C198.432 82.128 198.648 82.992 198.936 83.856C199.224 84.672 199.608 85.464 200.088 86.232C200.616 87 201.24 87.648 201.96 88.176C202.68 88.656 203.472 89.016 204.336 89.256C205.2 89.496 206.088 89.616 207 89.616C207.912 89.616 208.8 89.496 209.664 89.256C210.528 89.016 211.32 88.656 212.04 88.176C212.76 87.648 213.36 87 213.84 86.232C214.368 85.464 214.776 84.672 215.064 83.856C215.352 82.992 215.544 82.128 215.64 81.264C215.784 80.4 215.856 79.512 215.856 78.6V55.56H220.248V93H215.856V86.088C215.472 87.192 214.944 88.224 214.272 89.184C213.6 90.144 212.808 90.984 211.896 91.704C210.984 92.376 209.952 92.856 208.8 93.144C207.648 93.432 206.496 93.576 205.344 93.576Z" fill="#222623"/>
<path d="M242.928 93.576C241.872 93.576 240.816 93.504 239.76 93.36C238.752 93.264 237.744 93.048 236.736 92.712C235.776 92.376 234.84 91.944 233.928 91.416C233.064 90.84 232.296 90.144 231.624 89.328C231 88.512 230.496 87.6 230.112 86.592C229.776 85.584 229.608 84.576 229.608 83.568V83.352H234V83.424C234 84.432 234.288 85.392 234.864 86.304C235.44 87.168 236.16 87.864 237.024 88.392C237.936 88.872 238.896 89.208 239.904 89.4C240.912 89.544 241.92 89.616 242.928 89.616C243.936 89.616 244.944 89.544 245.952 89.4C246.96 89.208 247.896 88.872 248.76 88.392C249.672 87.912 250.416 87.24 250.992 86.376C251.568 85.464 251.856 84.504 251.856 83.496C251.856 82.44 251.568 81.48 250.992 80.616C250.416 79.704 249.696 78.984 248.832 78.456C247.968 77.88 247.008 77.472 245.952 77.232C244.944 76.944 243.936 76.704 242.928 76.512C241.92 76.272 240.912 76.008 239.904 75.72C238.944 75.432 237.984 75.072 237.024 74.64C236.112 74.208 235.248 73.68 234.432 73.056C233.616 72.384 232.896 71.64 232.272 70.824C231.648 70.008 231.168 69.096 230.832 68.088C230.496 67.08 230.328 66.072 230.328 65.064C230.328 64.056 230.472 63.072 230.76 62.112C231.096 61.104 231.576 60.192 232.2 59.376C232.824 58.56 233.544 57.864 234.36 57.288C235.224 56.664 236.136 56.184 237.096 55.848C238.056 55.512 239.04 55.296 240.048 55.2C241.056 55.056 242.064 54.984 243.072 54.984C244.08 54.984 245.088 55.056 246.096 55.2C247.104 55.296 248.088 55.512 249.048 55.848C250.008 56.184 250.896 56.64 251.712 57.216C252.576 57.792 253.296 58.488 253.872 59.304C254.496 60.072 254.976 60.96 255.312 61.968C255.648 62.928 255.816 63.912 255.816 64.92V65.136H251.424V64.992C251.424 64.032 251.16 63.12 250.632 62.256C250.152 61.392 249.48 60.72 248.616 60.24C247.8 59.76 246.912 59.424 245.952 59.232C244.992 59.04 244.032 58.944 243.072 58.944C242.112 58.944 241.152 59.04 240.192 59.232C239.232 59.424 238.32 59.784 237.456 60.312C236.64 60.792 235.968 61.464 235.44 62.328C234.96 63.192 234.72 64.104 234.72 65.064C234.72 66.072 235.008 67.032 235.584 67.944C236.16 68.856 236.88 69.6 237.744 70.176C238.608 70.704 239.544 71.112 240.552 71.4C241.56 71.64 242.568 71.88 243.576 72.12C244.584 72.312 245.592 72.552 246.6 72.84C247.608 73.08 248.568 73.44 249.48 73.92C250.44 74.352 251.328 74.904 252.144 75.576C252.96 76.2 253.68 76.92 254.304 77.736C254.928 78.552 255.408 79.464 255.744 80.472C256.08 81.432 256.248 82.44 256.248 83.496C256.248 84.552 256.056 85.584 255.672 86.592C255.336 87.6 254.832 88.512 254.16 89.328C253.536 90.144 252.768 90.84 251.856 91.416C250.992 91.944 250.056 92.376 249.048 92.712C248.088 93.048 247.08 93.264 246.024 93.36C245.016 93.504 243.984 93.576 242.928 93.576Z" fill="#222623"/>
<path d="M266.4 93V89.04H277.344V59.52H267.408V55.56H281.664V89.04H291.6V93H266.4ZM279.504 48.504C278.976 48.504 278.472 48.432 277.992 48.288C277.512 48.144 277.08 47.904 276.696 47.568C276.36 47.184 276.12 46.752 275.976 46.272C275.832 45.792 275.76 45.288 275.76 44.76C275.76 44.232 275.832 43.728 275.976 43.248C276.12 42.768 276.36 42.36 276.696 42.024C277.08 41.64 277.512 41.376 277.992 41.232C278.472 41.088 278.976 41.016 279.504 41.016C280.032 41.016 280.536 41.088 281.016 41.232C281.496 41.376 281.904 41.64 282.24 42.024C282.624 42.36 282.888 42.768 283.032 43.248C283.176 43.728 283.248 44.232 283.248 44.76C283.248 45.288 283.176 45.792 283.032 46.272C282.888 46.752 282.624 47.184 282.24 47.568C281.904 47.904 281.496 48.144 281.016 48.288C280.536 48.432 280.032 48.504 279.504 48.504Z" fill="#222623"/>
<path d="M315 93.576C313.704 93.576 312.408 93.432 311.112 93.144C309.864 92.904 308.688 92.472 307.584 91.848C306.48 91.176 305.496 90.36 304.632 89.4C303.768 88.392 303.072 87.312 302.544 86.16C302.064 84.96 301.704 83.736 301.464 82.488C301.272 81.192 301.176 79.896 301.176 78.6V69.96C301.176 68.664 301.272 67.392 301.464 66.144C301.704 64.848 302.064 63.624 302.544 62.472C303.072 61.272 303.768 60.192 304.632 59.232C305.496 58.224 306.48 57.408 307.584 56.784C308.688 56.112 309.864 55.656 311.112 55.416C312.408 55.128 313.704 54.984 315 54.984C316.296 54.984 317.568 55.128 318.816 55.416C320.112 55.656 321.312 56.112 322.416 56.784C323.52 57.408 324.504 58.224 325.368 59.232C326.232 60.192 326.904 61.272 327.384 62.472C327.912 63.624 328.272 64.848 328.464 66.144C328.704 67.392 328.824 68.664 328.824 69.96V78.6C328.824 79.896 328.704 81.192 328.464 82.488C328.272 83.736 327.912 84.96 327.384 86.16C326.904 87.312 326.232 88.392 325.368 89.4C324.504 90.36 323.52 91.176 322.416 91.848C321.312 92.472 320.112 92.904 318.816 93.144C317.568 93.432 316.296 93.576 315 93.576ZM315 89.616C315.912 89.616 316.824 89.52 317.736 89.328C318.648 89.088 319.488 88.728 320.256 88.248C321.024 87.72 321.672 87.096 322.2 86.376C322.776 85.608 323.232 84.816 323.568 84C323.904 83.136 324.12 82.248 324.216 81.336C324.36 80.424 324.432 79.512 324.432 78.6V69.96C324.432 69.048 324.36 68.136 324.216 67.224C324.12 66.312 323.904 65.448 323.568 64.632C323.232 63.768 322.776 62.976 322.2 62.256C321.672 61.488 321.024 60.864 320.256 60.384C319.488 59.856 318.648 59.496 317.736 59.304C316.824 59.064 315.912 58.944 315 58.944C314.088 58.944 313.176 59.064 312.264 59.304C311.352 59.496 310.512 59.856 309.744 60.384C308.976 60.864 308.304 61.488 307.728 62.256C307.2 62.976 306.768 63.768 306.432 64.632C306.096 65.448 305.856 66.312 305.712 67.224C305.616 68.136 305.568 69.048 305.568 69.96V78.6C305.568 79.512 305.616 80.424 305.712 81.336C305.856 82.248 306.096 83.136 306.432 84C306.768 84.816 307.2 85.608 307.728 86.376C308.304 87.096 308.976 87.72 309.744 88.248C310.512 88.728 311.352 89.088 312.264 89.328C313.176 89.52 314.088 89.616 315 89.616Z" fill="#222623"/>
</g>
<defs>
<clipPath id="clip0_4207_5778">
<rect width="358.73" height="140" fill="white"/>
</clipPath>
</defs>
</svg>
